# xmcd
#
# Track frame offsets: 
#        150
#        23623
#        41717
#        60843
#        80109
#        103713
#        118118
#        137415
#        163170
#        182759
#        199164
#        216331
#        246802
#
# Disc length: 3475 seconds
#
# Revision: 0
# Processed by: cddbd v1.5.2PL0 Copyright (c) Steve Scherf et al.
# Submitted via: ExactAudioCopy v1.0b4
#
DISCID=b40d910d
DTITLE=Vegas Strip Kings - Jackpot!
DYEAR=2018
DGENRE=Blues
TTITLE0=Rotgut Run
TTITLE1=It Ain't
TTITLE2=Jesus On The Dash
TTITLE3=Lately
TTITLE4=Screeching Halt
TTITLE5=Take It Easy
TTITLE6=Back To You
TTITLE7=V8 Ford
TTITLE8=Hold On
TTITLE9=Pawnbroker
TTITLE10=Life Of Me
TTITLE11=Same Thing
TTITLE12=Sharp As A Razor
EXTD=
EXTT0=
EXTT1=
EXTT2=
EXTT3=
EXTT4=
EXTT5=
EXTT6=
EXTT7=
EXTT8=
EXTT9=
EXTT10=
EXTT11=
EXTT12=
PLAYORDER=
